<svg width="299" height="327" viewBox="0 0 299 327" fill="none" xmlns="http://www.w3.org/2000/svg">
<path d="M153.115 214.49C141.91 214.49 132.261 211.844 124.168 206.553C116.075 201.261 109.85 193.973 105.492 184.687C101.134 175.401 98.9554 164.792 98.9554 152.86C98.9554 140.721 101.186 130.008 105.648 120.722C110.161 111.384 116.438 104.096 124.479 98.8561C132.572 93.5646 142.013 90.9189 152.804 90.9189C161.208 90.9189 168.782 92.4752 175.526 95.5878C182.27 98.7005 187.795 103.058 192.101 108.661C196.407 114.264 199.078 120.8 200.116 128.27H181.751C180.351 122.823 177.238 117.999 172.413 113.797C167.641 109.543 161.208 107.416 153.115 107.416C145.956 107.416 139.679 109.283 134.284 113.019C128.94 116.702 124.764 121.915 121.755 128.659C118.798 135.352 117.32 143.211 117.32 152.238C117.32 161.472 118.772 169.513 121.678 176.36C124.635 183.208 128.785 188.526 134.128 192.313C139.523 196.1 145.852 197.993 153.115 197.993C157.888 197.993 162.22 197.163 166.11 195.503C170.001 193.843 173.295 191.457 175.993 188.344C178.691 185.231 180.61 181.496 181.751 177.139H200.116C199.078 184.194 196.51 190.549 192.412 196.203C188.366 201.806 182.996 206.268 176.304 209.588C169.664 212.856 161.934 214.49 153.115 214.49Z" fill="#234F30"/>
<path d="M204.75 116.625C202.688 110.313 199.969 104.656 196.594 99.6563C193.281 94.5938 189.313 90.2812 184.688 86.7188C180.125 83.1563 174.938 80.4375 169.125 78.5625C163.313 76.6875 156.938 75.75 150 75.75C138.625 75.75 128.281 78.6875 118.969 84.5625C109.656 90.4375 102.25 99.0938 96.75 110.531C91.25 121.969 88.5 136 88.5 152.625C88.5 169.25 91.2813 183.281 96.8438 194.719C102.406 206.156 109.938 214.812 119.438 220.688C128.938 226.562 139.625 229.5 151.5 229.5C162.5 229.5 172.188 227.156 180.562 222.469C189 217.719 195.562 211.031 200.25 202.406C205 193.719 207.375 183.5 207.375 171.75L214.5 173.25H156.75V152.625H229.875V173.25C229.875 189.063 226.5 202.812 219.75 214.5C213.062 226.188 203.812 235.25 192 241.688C180.25 248.063 166.75 251.25 151.5 251.25C134.5 251.25 119.562 247.25 106.688 239.25C93.875 231.25 83.875 219.875 76.6875 205.125C69.5625 190.375 66 172.875 66 152.625C66 137.438 68.0312 123.781 72.0937 111.656C76.2188 99.4688 82.0313 89.0938 89.5313 80.5313C97.0313 71.9688 105.906 65.4063 116.156 60.8438C126.406 56.2813 137.688 54 150 54C160.125 54 169.563 55.5312 178.313 58.5937C187.125 61.5937 194.969 65.875 201.844 71.4375C208.781 76.9375 214.562 83.5312 219.188 91.2188C223.812 98.8438 227 107.313 228.75 116.625H204.75Z" fill="url(#paint0_linear_10_2)"/>
<path d="M172.29 121.917L224.262 96.9405L234.885 118.049L183.096 144.112L172.29 121.917Z" fill="white"/>
<rect x="171.754" y="121.301" width="58.3183" height="25.543" transform="rotate(-26.0045 171.754 121.301)" fill="#5DC244"/>
<g clip-path="url(#clip0_10_2)">
<path fill-rule="evenodd" clip-rule="evenodd" d="M221.472 265.836C221.259 266.426 221.069 266.92 221.044 267.426C221.02 267.919 221.017 268.14 221.249 267.563C221.464 267.025 221.66 266.506 222.016 265.959C222.053 265.955 222.091 265.95 222.132 265.946C226.77 265.354 229.336 262.432 226.792 256.521C223.792 258.735 218.881 259.834 221.24 265.399C221.327 265.607 221.392 265.747 221.472 265.836ZM222.346 264.538C222.704 261.911 225.27 260.214 226.163 258.206C225.571 261.544 224.702 261.688 222.346 264.538Z" fill="#234F30"/>
</g>
<path d="M31.6023 274.75C31.1804 273.459 30.6243 272.302 29.9339 271.279C29.2564 270.244 28.4446 269.362 27.4986 268.633C26.5653 267.904 25.5043 267.348 24.3153 266.964C23.1264 266.581 21.8224 266.389 20.4034 266.389C18.0767 266.389 15.9609 266.99 14.0561 268.192C12.1513 269.393 10.6364 271.164 9.51136 273.504C8.38636 275.843 7.82386 278.713 7.82386 282.114C7.82386 285.514 8.39276 288.384 9.53054 290.724C10.6683 293.063 12.2088 294.834 14.152 296.036C16.0952 297.237 18.2813 297.838 20.7102 297.838C22.9602 297.838 24.9418 297.359 26.6548 296.4C28.3807 295.428 29.723 294.06 30.6818 292.296C31.6534 290.519 32.1392 288.429 32.1392 286.026L33.5966 286.332H21.7841V282.114H36.7415V286.332C36.7415 289.567 36.0511 292.379 34.6705 294.77C33.3026 297.161 31.4105 299.014 28.9943 300.331C26.5909 301.635 23.8295 302.287 20.7102 302.287C17.233 302.287 14.1776 301.469 11.544 299.832C8.9233 298.196 6.87784 295.869 5.40767 292.852C3.95028 289.835 3.22159 286.256 3.22159 282.114C3.22159 279.007 3.63707 276.214 4.46804 273.734C5.31179 271.241 6.50071 269.119 8.0348 267.367C9.56889 265.616 11.3842 264.273 13.4808 263.34C15.5774 262.407 17.8849 261.94 20.4034 261.94C22.4744 261.94 24.4048 262.254 26.1946 262.88C27.9972 263.494 29.6016 264.369 31.0078 265.507C32.4268 266.632 33.6094 267.981 34.5554 269.553C35.5014 271.113 36.1534 272.845 36.5114 274.75H31.6023ZM44.2729 301.75V272.295H48.6451V276.744H48.9519C49.4888 275.287 50.4604 274.104 51.8667 273.197C53.2729 272.289 54.8581 271.835 56.6223 271.835C56.9547 271.835 57.3702 271.842 57.8688 271.854C58.3674 271.867 58.7445 271.886 59.0002 271.912V276.514C58.8468 276.476 58.4952 276.418 57.9455 276.342C57.4086 276.252 56.8397 276.207 56.2388 276.207C54.807 276.207 53.5286 276.508 52.4036 277.109C51.2914 277.697 50.4093 278.515 49.7573 279.563C49.1181 280.599 48.7985 281.781 48.7985 283.111V301.75H44.2729ZM75.8177 302.364C72.9796 302.364 70.5314 301.737 68.4732 300.484C66.4277 299.219 64.8489 297.455 63.7367 295.192C62.6373 292.916 62.0875 290.27 62.0875 287.253C62.0875 284.236 62.6373 281.577 63.7367 279.276C64.8489 276.962 66.3958 275.159 68.3773 273.868C70.3716 272.564 72.6983 271.912 75.3574 271.912C76.8915 271.912 78.4064 272.168 79.9022 272.679C81.3979 273.19 82.7594 274.021 83.9867 275.172C85.214 276.31 86.1919 277.818 86.9206 279.697C87.6493 281.577 88.0137 283.891 88.0137 286.639V288.557H65.3091V284.645H83.4114C83.4114 282.983 83.079 281.5 82.4142 280.196C81.7623 278.892 80.829 277.863 79.6145 277.109C78.4128 276.354 76.9938 275.977 75.3574 275.977C73.5549 275.977 71.9952 276.425 70.6784 277.32C69.3745 278.202 68.3709 279.352 67.6678 280.771C66.9647 282.19 66.6131 283.712 66.6131 285.335V287.943C66.6131 290.168 66.9966 292.053 67.7637 293.6C68.5435 295.134 69.6238 296.304 71.0044 297.109C72.3851 297.902 73.9895 298.298 75.8177 298.298C77.0066 298.298 78.0804 298.132 79.0392 297.8C80.0108 297.455 80.8482 296.943 81.5513 296.266C82.2544 295.575 82.7978 294.719 83.1813 293.696L87.5534 294.923C87.0932 296.406 86.3198 297.71 85.2331 298.835C84.1465 299.947 82.8042 300.817 81.2061 301.443C79.6081 302.057 77.812 302.364 75.8177 302.364Z" fill="#5DC244"/>
<path d="M106.491 302.364C103.653 302.364 101.205 301.737 99.147 300.484C97.1016 299.219 95.5227 297.455 94.4105 295.192C93.3111 292.916 92.7614 290.27 92.7614 287.253C92.7614 284.236 93.3111 281.577 94.4105 279.276C95.5227 276.962 97.0696 275.159 99.0511 273.868C101.045 272.564 103.372 271.912 106.031 271.912C107.565 271.912 109.08 272.168 110.576 272.679C112.072 273.19 113.433 274.021 114.661 275.172C115.888 276.31 116.866 277.818 117.594 279.697C118.323 281.577 118.688 283.891 118.688 286.639V288.557H95.983V284.645H114.085C114.085 282.983 113.753 281.5 113.088 280.196C112.436 278.892 111.503 277.863 110.288 277.109C109.087 276.354 107.668 275.977 106.031 275.977C104.229 275.977 102.669 276.425 101.352 277.32C100.048 278.202 99.0447 279.352 98.3416 280.771C97.6385 282.19 97.2869 283.712 97.2869 285.335V287.943C97.2869 290.168 97.6705 292.053 98.4375 293.6C99.2173 295.134 100.298 296.304 101.678 297.109C103.059 297.902 104.663 298.298 106.491 298.298C107.68 298.298 108.754 298.132 109.713 297.8C110.685 297.455 111.522 296.943 112.225 296.266C112.928 295.575 113.472 294.719 113.855 293.696L118.227 294.923C117.767 296.406 116.994 297.71 115.907 298.835C114.82 299.947 113.478 300.817 111.88 301.443C110.282 302.057 108.486 302.364 106.491 302.364Z" fill="#5DC244"/>
<path d="M130.168 284.031V301.75H125.642V272.295H130.014V276.898H130.398C131.088 275.402 132.136 274.2 133.543 273.293C134.949 272.372 136.764 271.912 138.989 271.912C140.983 271.912 142.728 272.321 144.224 273.139C145.719 273.945 146.883 275.172 147.714 276.821C148.545 278.457 148.96 280.528 148.96 283.034V301.75H144.435V283.341C144.435 281.027 143.834 279.224 142.632 277.933C141.43 276.629 139.781 275.977 137.685 275.977C136.24 275.977 134.949 276.29 133.811 276.917C132.686 277.543 131.798 278.457 131.146 279.659C130.494 280.861 130.168 282.318 130.168 284.031Z" fill="#5DC244"/>
<path d="M200.608 274.75H195.852C195.571 273.382 195.079 272.18 194.376 271.145C193.685 270.109 192.842 269.24 191.844 268.537C190.86 267.821 189.767 267.284 188.565 266.926C187.364 266.568 186.111 266.389 184.807 266.389C182.429 266.389 180.275 266.99 178.344 268.192C176.427 269.393 174.899 271.164 173.761 273.504C172.636 275.843 172.074 278.713 172.074 282.114C172.074 285.514 172.636 288.384 173.761 290.724C174.899 293.063 176.427 294.834 178.344 296.036C180.275 297.237 182.429 297.838 184.807 297.838C186.111 297.838 187.364 297.659 188.565 297.301C189.767 296.943 190.86 296.413 191.844 295.71C192.842 294.994 193.685 294.118 194.376 293.082C195.079 292.034 195.571 290.832 195.852 289.477H200.608C200.25 291.484 199.598 293.281 198.652 294.866C197.706 296.451 196.53 297.8 195.124 298.912C193.717 300.011 192.138 300.849 190.387 301.424C188.648 301.999 186.788 302.287 184.807 302.287C181.457 302.287 178.479 301.469 175.871 299.832C173.263 298.196 171.211 295.869 169.715 292.852C168.219 289.835 167.472 286.256 167.472 282.114C167.472 277.972 168.219 274.392 169.715 271.375C171.211 268.358 173.263 266.031 175.871 264.395C178.479 262.759 181.457 261.94 184.807 261.94C186.788 261.94 188.648 262.228 190.387 262.803C192.138 263.379 193.717 264.222 195.124 265.335C196.53 266.434 197.706 267.776 198.652 269.362C199.598 270.934 200.25 272.73 200.608 274.75ZM212.205 262.477V301.75H207.679V262.477H212.205ZM224.278 269.023V301.75H220.315V269.023H224.278ZM244.369 302.364C241.607 302.364 239.229 301.712 237.235 300.408C235.241 299.104 233.707 297.308 232.633 295.019C231.559 292.731 231.022 290.116 231.022 287.176C231.022 284.185 231.572 281.545 232.671 279.256C233.783 276.955 235.33 275.159 237.312 273.868C239.306 272.564 241.633 271.912 244.292 271.912C246.363 271.912 248.229 272.295 249.891 273.062C251.553 273.83 252.915 274.903 253.976 276.284C255.037 277.665 255.695 279.276 255.951 281.116H251.426C251.08 279.774 250.313 278.585 249.124 277.55C247.948 276.501 246.363 275.977 244.369 275.977C242.604 275.977 241.058 276.437 239.728 277.358C238.411 278.266 237.382 279.55 236.641 281.212C235.912 282.862 235.548 284.798 235.548 287.023C235.548 289.298 235.906 291.28 236.622 292.967C237.35 294.655 238.373 295.965 239.69 296.898C241.019 297.832 242.579 298.298 244.369 298.298C245.545 298.298 246.612 298.094 247.571 297.685C248.53 297.276 249.342 296.688 250.006 295.92C250.671 295.153 251.144 294.233 251.426 293.159H255.951C255.695 294.898 255.063 296.464 254.053 297.857C253.055 299.238 251.732 300.337 250.083 301.156C248.447 301.961 246.542 302.364 244.369 302.364ZM266.786 291.011L266.709 285.412H267.629L280.516 272.295H286.115L272.385 286.179H272.002L266.786 291.011ZM262.567 301.75V262.477H267.092V301.75H262.567ZM281.283 301.75L269.777 287.176L272.999 284.031L287.036 301.75H281.283Z" fill="#5DC244"/>
<defs>
<linearGradient id="paint0_linear_10_2" x1="72.75" y1="168.75" x2="147.937" y2="251.25" gradientUnits="userSpaceOnUse">
<stop stop-color="#5DC244"/>
<stop offset="1" stop-color="#234F30" stop-opacity="0.78"/>
</linearGradient>
<clipPath id="clip0_10_2">
<rect width="9.05114" height="9.05114" fill="white" transform="matrix(-0.950773 0.309887 0.309887 0.950773 226.855 256.5)"/>
</clipPath>
</defs>
</svg>
