<svg width="39" height="36" viewBox="0 0 39 36" fill="none" xmlns="http://www.w3.org/2000/svg">
<g clip-path="url(#clip0_319_169)">
<path d="M17.8626 29.4519C15.8291 29.4519 14.0779 28.9718 12.6092 28.0114C11.1405 27.0511 10.0107 25.7284 9.21986 24.0431C8.42902 22.3579 8.0336 20.4325 8.0336 18.2671C8.0336 16.0641 8.43843 14.1199 9.24811 12.4347C10.0672 10.74 11.2064 9.41722 12.6657 8.46632C14.1344 7.50601 15.8479 7.02586 17.8062 7.02586C19.3314 7.02586 20.7059 7.3083 21.9298 7.87319C23.1538 8.43808 24.1564 9.22892 24.9379 10.2457C25.7193 11.2625 26.2042 12.4488 26.3925 13.8045H23.0596C22.8054 12.816 22.2405 11.9404 21.365 11.1778C20.4988 10.4058 19.3314 10.0198 17.8626 10.0198C16.5634 10.0198 15.4242 10.3587 14.4451 11.0366C13.4754 11.705 12.7175 12.6512 12.1714 13.8751C11.6348 15.0896 11.3664 16.516 11.3664 18.1541C11.3664 19.83 11.6301 21.2893 12.1573 22.532C12.6939 23.7748 13.4471 24.7398 14.4168 25.4271C15.396 26.1144 16.5446 26.458 17.8626 26.458C18.7288 26.458 19.5149 26.3074 20.2211 26.0061C20.9272 25.7048 21.525 25.2717 22.0146 24.7069C22.5041 24.142 22.8525 23.4641 23.0596 22.6733H26.3925C26.2042 23.9537 25.7381 25.107 24.9944 26.1332C24.26 27.15 23.2856 27.9597 22.0711 28.5622C20.866 29.1553 19.4632 29.4519 17.8626 29.4519Z" fill="#234F30"/>
<path d="M27.1808 11.3654C26.8064 10.2198 26.313 9.19324 25.7005 8.28583C25.0994 7.36707 24.3791 6.58443 23.5398 5.93789C22.7117 5.29136 21.7703 4.79795 20.7154 4.45767C19.6606 4.11739 18.5036 3.94725 17.2446 3.94725C15.1802 3.94725 13.303 4.48036 11.6129 5.54657C9.92286 6.61278 8.57875 8.18375 7.5806 10.2595C6.58244 12.3352 6.08336 14.8816 6.08336 17.8988C6.08336 20.9159 6.58811 23.4623 7.59761 25.538C8.60711 27.6138 9.9739 29.1847 11.698 30.2509C13.4221 31.3171 15.3617 31.8502 17.5168 31.8502C19.5131 31.8502 21.2712 31.4249 22.7911 30.5742C24.3224 29.7122 25.5134 28.4985 26.3641 26.9332C27.2261 25.3566 27.6571 23.502 27.6571 21.3696L28.9502 21.6418H18.4696V17.8988H31.7405V21.6418C31.7405 24.5115 31.128 27.0069 29.903 29.128C28.6893 31.2491 27.0106 32.8938 24.8668 34.0621C22.7344 35.219 20.2844 35.7975 17.5168 35.7975C14.4316 35.7975 11.7207 35.0716 9.38408 33.6197C7.05884 32.1678 5.24401 30.1035 3.9396 27.4266C2.64653 24.7497 2 21.5738 2 17.8988C2 15.1425 2.36864 12.6641 3.10591 10.4636C3.85453 8.2518 4.9094 6.36892 6.27052 4.81497C7.63164 3.26102 9.2423 2.07004 11.1025 1.24202C12.9627 0.414008 15.0101 0 17.2446 0C19.0821 0 20.7948 0.277896 22.3828 0.833687C23.9821 1.37813 25.4056 2.15511 26.6533 3.16461C27.9124 4.16276 28.9615 5.35942 29.8009 6.75457C30.6403 8.13837 31.2187 9.67531 31.5363 11.3654H27.1808Z" fill="url(#paint0_linear_319_169)"/>
</g>
<defs>
<linearGradient id="paint0_linear_319_169" x1="3.22501" y1="20.8252" x2="16.8703" y2="35.7975" gradientUnits="userSpaceOnUse">
<stop stop-color="#5DC244"/>
<stop offset="1" stop-color="#234F30" stop-opacity="0.78"/>
</linearGradient>
<clipPath id="clip0_319_169">
<rect width="39" height="36" fill="white"/>
</clipPath>
</defs>
</svg>
