<svg width="129" height="19" viewBox="0 0 129 19" fill="none" xmlns="http://www.w3.org/2000/svg">
<path d="M9.086 18.22C7.854 18.22 6.73933 18.022 5.742 17.626C4.74467 17.23 3.88667 16.6727 3.168 15.954C2.44933 15.2353 1.89933 14.392 1.518 13.424C1.13667 12.4413 0.946 11.378 0.946 10.234C0.946 9.09 1.144 8.04133 1.54 7.088C1.95067 6.12 2.53 5.27667 3.278 4.558C4.026 3.83933 4.906 3.282 5.918 2.886C6.94467 2.49 8.05933 2.292 9.262 2.292C10.1127 2.292 10.912 2.402 11.66 2.622C12.4227 2.842 13.112 3.14267 13.728 3.524C14.344 3.90533 14.8647 4.34533 15.29 4.844L13.024 7.242C12.6573 6.89 12.276 6.59667 11.88 6.362C11.4987 6.12733 11.088 5.944 10.648 5.812C10.208 5.66533 9.73867 5.592 9.24 5.592C8.59467 5.592 8.00067 5.70933 7.458 5.944C6.93 6.17867 6.46067 6.50867 6.05 6.934C5.654 7.34467 5.346 7.836 5.126 8.408C4.906 8.96533 4.796 9.574 4.796 10.234C4.796 10.894 4.91333 11.51 5.148 12.082C5.38267 12.654 5.70533 13.1527 6.116 13.578C6.52667 13.9887 7.01067 14.3187 7.568 14.568C8.14 14.8027 8.74867 14.92 9.394 14.92C9.84867 14.92 10.274 14.8467 10.67 14.7C11.0807 14.5533 11.4327 14.3553 11.726 14.106C12.0193 13.8567 12.254 13.5633 12.43 13.226C12.606 12.874 12.694 12.5 12.694 12.104V11.532L13.178 12.28H8.932V9.354H16.17C16.1993 9.51533 16.2213 9.73533 16.236 10.014C16.2507 10.2927 16.258 10.564 16.258 10.828C16.2727 11.092 16.28 11.29 16.28 11.422C16.28 12.4193 16.0967 13.336 15.73 14.172C15.378 14.9933 14.8793 15.7047 14.234 16.306C13.5887 16.9073 12.826 17.3767 11.946 17.714C11.066 18.0513 10.1127 18.22 9.086 18.22ZM18.771 18V6.318H22.115L22.269 10.124L21.609 9.398C21.785 8.76733 22.071 8.20267 22.467 7.704C22.8777 7.20533 23.3543 6.80933 23.897 6.516C24.4397 6.22267 25.019 6.076 25.635 6.076C25.899 6.076 26.141 6.098 26.361 6.142C26.5957 6.186 26.8083 6.23733 26.999 6.296L26.031 10.19C25.8697 10.0873 25.6497 10.0067 25.371 9.948C25.107 9.87467 24.8283 9.838 24.535 9.838C24.2123 9.838 23.9117 9.89667 23.633 10.014C23.3543 10.1167 23.1197 10.2707 22.929 10.476C22.7383 10.6813 22.5843 10.9233 22.467 11.202C22.3643 11.4807 22.313 11.796 22.313 12.148V18H18.771ZM33.8546 18.22C32.5639 18.22 31.4419 17.9633 30.4886 17.45C29.5352 16.922 28.7946 16.2107 28.2666 15.316C27.7386 14.4067 27.4746 13.3727 27.4746 12.214C27.4746 11.3193 27.6212 10.498 27.9146 9.75C28.2079 9.002 28.6186 8.35667 29.1466 7.814C29.6746 7.25667 30.2979 6.83133 31.0166 6.538C31.7499 6.23 32.5492 6.076 33.4146 6.076C34.2359 6.076 34.9839 6.22267 35.6586 6.516C36.3479 6.80933 36.9419 7.22 37.4406 7.748C37.9392 8.276 38.3206 8.89933 38.5846 9.618C38.8486 10.3367 38.9659 11.1213 38.9366 11.972L38.9146 12.918H29.6086L29.1026 10.938H36.0546L35.6806 11.356V10.916C35.6512 10.5493 35.5339 10.2267 35.3286 9.948C35.1379 9.65467 34.8812 9.42733 34.5586 9.266C34.2359 9.10467 33.8692 9.024 33.4586 9.024C32.8866 9.024 32.3952 9.14133 31.9846 9.376C31.5886 9.596 31.2879 9.926 31.0826 10.366C30.8772 10.7913 30.7746 11.3193 30.7746 11.95C30.7746 12.5953 30.9066 13.16 31.1706 13.644C31.4492 14.1133 31.8452 14.48 32.3586 14.744C32.8866 15.008 33.5099 15.14 34.2286 15.14C34.7272 15.14 35.1672 15.0667 35.5486 14.92C35.9446 14.7733 36.3699 14.524 36.8246 14.172L38.4746 16.504C38.0199 16.9 37.5359 17.2227 37.0226 17.472C36.5092 17.7213 35.9812 17.9047 35.4386 18.022C34.9106 18.154 34.3826 18.22 33.8546 18.22ZM46.7452 18.22C45.4545 18.22 44.3325 17.9633 43.3792 17.45C42.4259 16.922 41.6852 16.2107 41.1572 15.316C40.6292 14.4067 40.3652 13.3727 40.3652 12.214C40.3652 11.3193 40.5119 10.498 40.8052 9.75C41.0985 9.002 41.5092 8.35667 42.0372 7.814C42.5652 7.25667 43.1885 6.83133 43.9072 6.538C44.6405 6.23 45.4399 6.076 46.3052 6.076C47.1265 6.076 47.8745 6.22267 48.5492 6.516C49.2385 6.80933 49.8325 7.22 50.3312 7.748C50.8299 8.276 51.2112 8.89933 51.4752 9.618C51.7392 10.3367 51.8565 11.1213 51.8272 11.972L51.8052 12.918H42.4992L41.9932 10.938H48.9452L48.5712 11.356V10.916C48.5419 10.5493 48.4245 10.2267 48.2192 9.948C48.0285 9.65467 47.7719 9.42733 47.4492 9.266C47.1265 9.10467 46.7599 9.024 46.3492 9.024C45.7772 9.024 45.2859 9.14133 44.8752 9.376C44.4792 9.596 44.1785 9.926 43.9732 10.366C43.7679 10.7913 43.6652 11.3193 43.6652 11.95C43.6652 12.5953 43.7972 13.16 44.0612 13.644C44.3399 14.1133 44.7359 14.48 45.2492 14.744C45.7772 15.008 46.4005 15.14 47.1192 15.14C47.6179 15.14 48.0579 15.0667 48.4392 14.92C48.8352 14.7733 49.2605 14.524 49.7152 14.172L51.3652 16.504C50.9105 16.9 50.4265 17.2227 49.9132 17.472C49.3999 17.7213 48.8719 17.9047 48.3292 18.022C47.8012 18.154 47.2732 18.22 46.7452 18.22ZM54.0698 18V6.318H57.4138L57.5238 8.694L56.8198 8.958C56.9811 8.43 57.2671 7.95333 57.6778 7.528C58.1031 7.088 58.6091 6.736 59.1958 6.472C59.7825 6.208 60.3985 6.076 61.0438 6.076C61.9238 6.076 62.6645 6.25933 63.2658 6.626C63.8671 6.978 64.3218 7.51333 64.6298 8.232C64.9378 8.936 65.0918 9.80133 65.0918 10.828V18H61.5498V11.114C61.5498 10.6447 61.4838 10.256 61.3518 9.948C61.2198 9.64 61.0145 9.41267 60.7358 9.266C60.4718 9.10467 60.1418 9.03133 59.7458 9.046C59.4378 9.046 59.1518 9.09733 58.8878 9.2C58.6238 9.288 58.3965 9.42733 58.2058 9.618C58.0151 9.794 57.8611 9.99933 57.7438 10.234C57.6411 10.4687 57.5898 10.7253 57.5898 11.004V18H55.8518C55.4411 18 55.0891 18 54.7958 18C54.5025 18 54.2605 18 54.0698 18ZM82.4515 18.22C81.2929 18.22 80.2222 18.0293 79.2395 17.648C78.2715 17.252 77.4282 16.702 76.7095 15.998C75.9909 15.2793 75.4335 14.436 75.0375 13.468C74.6562 12.4853 74.4655 11.4073 74.4655 10.234C74.4655 9.09 74.6709 8.034 75.0815 7.066C75.4922 6.098 76.0569 5.262 76.7755 4.558C77.5089 3.83933 78.3669 3.282 79.3495 2.886C80.3469 2.49 81.4322 2.292 82.6055 2.292C83.3389 2.292 84.0575 2.38733 84.7615 2.578C85.4655 2.76867 86.1182 3.05467 86.7195 3.436C87.3355 3.80267 87.8635 4.24267 88.3035 4.756L86.0155 7.374C85.7075 7.05133 85.3775 6.77267 85.0255 6.538C84.6882 6.28867 84.3142 6.098 83.9035 5.966C83.4929 5.834 83.0529 5.768 82.5835 5.768C81.9969 5.768 81.4395 5.878 80.9115 6.098C80.3982 6.30333 79.9435 6.604 79.5475 7C79.1662 7.38133 78.8655 7.85067 78.6455 8.408C78.4255 8.96533 78.3155 9.58867 78.3155 10.278C78.3155 10.9527 78.4255 11.5687 78.6455 12.126C78.8655 12.6687 79.1735 13.138 79.5695 13.534C79.9655 13.93 80.4422 14.2307 80.9995 14.436C81.5715 14.6413 82.2022 14.744 82.8915 14.744C83.3609 14.744 83.8082 14.678 84.2335 14.546C84.6589 14.414 85.0475 14.238 85.3995 14.018C85.7662 13.7833 86.0889 13.5193 86.3675 13.226L88.1715 16.086C87.8049 16.4967 87.3135 16.8633 86.6975 17.186C86.0962 17.5087 85.4215 17.7653 84.6735 17.956C83.9402 18.132 83.1995 18.22 82.4515 18.22ZM90.3789 18V1.72H93.8989V18H90.3789ZM97.2366 18V6.318H100.757V18H97.2366ZM98.9966 4.008C98.3366 4.008 97.8159 3.854 97.4346 3.546C97.0679 3.22333 96.8846 2.76867 96.8846 2.182C96.8846 1.654 97.0752 1.22133 97.4566 0.883999C97.8379 0.546665 98.3512 0.377999 98.9966 0.377999C99.6566 0.377999 100.17 0.539332 100.537 0.861999C100.903 1.17 101.087 1.61 101.087 2.182C101.087 2.72467 100.896 3.16467 100.515 3.502C100.148 3.83933 99.6419 4.008 98.9966 4.008ZM109.19 18.22C108.061 18.22 107.049 17.956 106.154 17.428C105.259 16.9 104.548 16.1813 104.02 15.272C103.507 14.348 103.25 13.3067 103.25 12.148C103.25 10.9893 103.507 9.95533 104.02 9.046C104.548 8.122 105.259 7.396 106.154 6.868C107.049 6.34 108.061 6.076 109.19 6.076C110.231 6.076 111.185 6.25933 112.05 6.626C112.93 6.99267 113.627 7.506 114.14 8.166L112.226 10.454C112.021 10.2193 111.779 9.99933 111.5 9.794C111.221 9.58867 110.913 9.42733 110.576 9.31C110.239 9.19267 109.887 9.134 109.52 9.134C108.963 9.134 108.471 9.266 108.046 9.53C107.621 9.77933 107.291 10.1313 107.056 10.586C106.821 11.0407 106.704 11.5613 106.704 12.148C106.704 12.7053 106.821 13.2113 107.056 13.666C107.305 14.1207 107.643 14.48 108.068 14.744C108.493 15.008 108.977 15.14 109.52 15.14C109.901 15.14 110.253 15.096 110.576 15.008C110.899 14.9053 111.192 14.7587 111.456 14.568C111.735 14.3773 111.991 14.1427 112.226 13.864L114.118 16.174C113.619 16.8047 112.923 17.3033 112.028 17.67C111.148 18.0367 110.202 18.22 109.19 18.22ZM119.44 14.568L118.142 11.928L123.598 6.318H128.24L119.44 14.568ZM116.052 18V1.72H119.572V18H116.052ZM123.972 18L119.858 12.676L122.344 10.74L128.13 18H123.972Z" fill="#EFF7F5"/>
</svg>
